<?xml version="1.0" encoding="iso-8859-1"?>
<!-- Uploaded to: SVG Repo, www.svgrepo.com, Generator: SVG Repo Mixer Tools -->
<svg fill="#000000" height="800px" width="800px" version="1.1" id="Layer_1" xmlns="http://www.w3.org/2000/svg" xmlns:xlink="http://www.w3.org/1999/xlink" 
	 viewBox="0 0 512 512" xml:space="preserve">
<g>
	<g>
		<path d="M508.222,172.908c-29.856-29.854-66.857-51.073-107.423-61.693c-10.619-40.566-31.843-77.572-61.706-107.437
			c-5.035-5.037-13.199-5.035-18.235-0.002c-5.037,5.035-5.037,13.199-0.002,18.233c23.6,23.602,41.121,52.206,51.392,83.575
			c-153.905-20.81-287.74,110.92-266.653,266.659c-31.367-10.258-59.977-27.778-83.586-51.385
			c-5.034-5.034-13.198-5.035-18.233,0.002c-5.035,5.035-5.035,13.199,0.002,18.233c29.872,29.872,66.884,51.091,107.45,61.693
			c10.602,40.566,31.816,77.572,61.679,107.435c5.035,5.035,13.198,5.037,18.233,0.002c5.037-5.035,5.037-13.199,0.002-18.233
			c-23.598-23.598-41.111-52.201-51.367-83.567c72.121,9.761,146.115-14.105,199.331-67.331c0,0,0.002-0.003,0.003-0.003
			c53.666-53.662,76.986-127.848,67.321-199.326c31.367,10.268,59.968,27.784,83.562,51.376c5.034,5.034,13.196,5.035,18.233-0.002
			C513.259,186.107,513.259,177.943,508.222,172.908z M132.805,379.21c-3.189-17.122-4.245-34.42-3.158-51.715l54.873,54.873
			C167.227,383.454,149.935,382.397,132.805,379.21z M216.53,377.907l-82.42-82.42c3.007-13.872,7.391-27.338,13.093-40.25
			L256.78,364.814C243.866,370.518,230.402,374.9,216.53,377.907z M280.76,352.324L159.684,231.248
			c6.589-10.879,14.16-21.152,22.631-30.712l129.166,129.166C301.915,338.18,291.637,345.749,280.76,352.324z M329.715,311.466
			L200.549,182.3c9.567-8.475,19.844-16.043,30.721-22.62l121.068,121.068C345.76,291.624,338.191,301.903,329.715,311.466z
			 M364.825,256.765L255.252,147.192c12.895-5.692,26.361-10.074,40.252-13.091l82.413,82.413
			C374.897,230.406,370.517,243.872,364.825,256.765z M382.374,184.5l-54.857-54.857c17.269-1.083,34.561-0.033,51.704,3.153
			C382.408,149.937,383.46,167.233,382.374,184.5z"/>
	</g>
</g>
</svg>