<?xml version="1.0" encoding="iso-8859-1"?>
<!-- Uploaded to: SVG Repo, www.svgrepo.com, Generator: SVG Repo Mixer Tools -->
<svg fill="#000000" height="800px" width="800px" version="1.1" id="Layer_1" xmlns="http://www.w3.org/2000/svg" xmlns:xlink="http://www.w3.org/1999/xlink" 
	 viewBox="0 0 512 512" xml:space="preserve">
<g>
	<g>
		<g>
			<path d="M483.821,55.699H28.179C12.642,55.699,0,68.341,0,83.878v344.243c0,15.537,12.642,28.179,28.179,28.179h455.642
				c15.537,0,28.179-12.642,28.179-28.179V83.878C512,68.34,499.358,55.699,483.821,55.699z M487.847,428.122
				c0,2.221-1.805,4.026-4.026,4.026H28.179c-2.221,0-4.026-1.805-4.026-4.026V83.878c0-2.221,1.805-4.026,4.026-4.026h455.642
				c2.221,0,4.026,1.805,4.026,4.026V428.122z"/>
			<path d="M340.217,104.006H60.384c-6.671,0-12.077,5.406-12.077,12.077v279.834c0,6.671,5.406,12.077,12.077,12.077h279.834
				c6.671,0,12.077-5.406,12.077-12.077V116.083C352.294,109.412,346.889,104.006,340.217,104.006z M328.141,383.837H72.46V268.076
				h23.426l26.881,60.962c4.522,10.254,19.305,9.317,22.587-1.306l39.216-126.822l41.356,126.992
				c3.496,10.729,18.611,11.225,22.735,0.649l31.903-81.801l4.947,13.423c1.749,4.747,6.273,7.9,11.331,7.9h31.3V383.837z
				 M328.141,243.924h-22.878l-13.048-35.402c-3.845-10.438-18.55-10.549-22.582-0.213l-31.201,79.999l-42.678-131.05
				c-3.649-11.196-19.545-11.08-23.021,0.171l-40.906,132.292l-17.017-38.594c-1.931-4.378-6.265-7.204-11.049-7.204h-31.3V128.16
				h255.68V243.924z"/>
			<path d="M379.815,212.697h24.153c4.446,0,8.051-3.605,8.051-8.051v-24.153c0-4.446-3.605-8.051-8.051-8.051h-24.153
				c-4.446,0-8.051,3.605-8.051,8.051v24.153C371.763,209.092,375.369,212.697,379.815,212.697z"/>
			<path d="M436.173,212.697h24.153c4.447,0,8.051-3.605,8.051-8.051v-24.153c0-4.446-3.604-8.051-8.051-8.051h-24.153
				c-4.446,0-8.051,3.605-8.051,8.051v24.153C428.122,209.092,431.727,212.697,436.173,212.697z"/>
			<path d="M379.815,156.339h24.153c4.446,0,8.051-3.605,8.051-8.051v-24.154c0-4.446-3.605-8.051-8.051-8.051h-24.153
				c-4.446,0-8.051,3.605-8.051,8.051v24.154C371.763,152.734,375.369,156.339,379.815,156.339z"/>
			<path d="M436.173,156.339h24.153c4.447,0,8.051-3.605,8.051-8.051v-24.154c0-4.446-3.604-8.051-8.051-8.051h-24.153
				c-4.446,0-8.051,3.605-8.051,8.051v24.154C428.122,152.734,431.727,156.339,436.173,156.339z"/>
			<path d="M379.815,268.25h24.153c4.446,0,8.051-3.605,8.051-8.051v-24.153c0-4.446-3.605-8.051-8.051-8.051h-24.153
				c-4.446,0-8.051,3.605-8.051,8.051v24.153C371.763,264.645,375.369,268.25,379.815,268.25z"/>
			<path d="M436.173,268.25h24.153c4.447,0,8.051-3.605,8.051-8.051v-24.153c0-4.446-3.604-8.051-8.051-8.051h-24.153
				c-4.446,0-8.051,3.605-8.051,8.051v24.153C428.122,264.645,431.727,268.25,436.173,268.25z"/>
			<path d="M458.011,301.718h-75.879c-6.671,0-12.077,5.406-12.077,12.077c0,6.671,5.406,12.077,12.077,12.077h75.879
				c6.671,0,12.077-5.406,12.077-12.077C470.087,307.124,464.68,301.718,458.011,301.718z"/>
			<path d="M458.011,342.779h-75.879c-6.671,0-12.077,5.406-12.077,12.077c0,6.671,5.406,12.077,12.077,12.077h75.879
				c6.671,0,12.077-5.406,12.077-12.077C470.087,348.185,464.68,342.779,458.011,342.779z"/>
			<path d="M458.011,383.84h-75.879c-6.671,0-12.077,5.406-12.077,12.077s5.406,12.077,12.077,12.077h75.879
				c6.671,0,12.077-5.406,12.077-12.077S464.68,383.84,458.011,383.84z"/>
		</g>
	</g>
</g>
</svg>