<?xml version="1.0" encoding="iso-8859-1"?>
<!-- Uploaded to: SVG Repo, www.svgrepo.com, Generator: SVG Repo Mixer Tools -->
<svg fill="#000000" height="800px" width="800px" version="1.1" id="Layer_1" xmlns="http://www.w3.org/2000/svg" xmlns:xlink="http://www.w3.org/1999/xlink" 
	 viewBox="0 0 511.998 511.998" xml:space="preserve">
<g>
	<g>
		<path d="M445.262,171.189c-20.827,0-37.77,16.943-37.77,37.769c0,16.429,10.547,30.433,25.222,35.617v105.223
			c0,75.611-61.515,137.125-137.124,137.125c-72.237,0-131.567-56.145-136.732-127.078c26.427-5.299,42.881-25.948,41.258-47.248
			c38.427-20.051,62.737-59.652,62.737-103.638V29.07c0-6.924-5.612-12.538-12.538-12.538h-46.624v-3.994
			C203.689,5.614,198.077,0,191.151,0s-12.538,5.614-12.538,12.538v33.061c0,6.924,5.612,12.538,12.538,12.538
			s12.538-5.614,12.538-12.538v-3.991h34.086V196.42h-39.663c-6.926,0-12.538,5.614-12.538,12.538
			c0,21.87-17.794,39.663-39.664,39.663s-39.663-17.793-39.663-39.663c0-6.924-5.612-12.538-12.538-12.538H54.044V41.609H88.13
			v3.991c0,6.924,5.612,12.538,12.538,12.538s12.538-5.614,12.538-12.538V12.538C113.207,5.614,107.594,0,100.668,0
			S88.13,5.614,88.13,12.538v3.994H41.506c-6.926,0-12.538,5.614-12.538,12.538v179.888c0,43.991,24.309,83.59,62.735,103.638
			c-1.638,21.517,15.16,42.343,41.998,47.391c5.279,84.709,75.865,152.011,161.888,152.011c89.438,0,162.2-72.764,162.2-162.202
			V244.58c14.687-5.178,25.242-19.187,25.242-35.622C483.031,188.131,466.087,171.189,445.262,171.189z M54.892,221.496h27.496
			c5.856,29.719,32.113,52.201,63.522,52.201s57.666-22.482,63.522-52.201h27.494c-4.372,32.148-25.386,59.794-56.006,72.428
			c-22.251,9.185-47.771,9.185-70.026,0C80.278,281.292,59.263,253.648,54.892,221.496z M118.618,322.684
			c18.204,4.332,37.128,4.151,54.58,0C163.34,340.506,128.466,340.5,118.618,322.684z M445.262,221.652
			c-6.998,0-12.694-5.694-12.694-12.692c0-7,5.694-12.692,12.694-12.692s12.692,5.694,12.692,12.692
			C457.954,215.958,452.26,221.652,445.262,221.652z"/>
	</g>
</g>
</svg>