<?xml version="1.0" encoding="iso-8859-1"?>
<!-- Uploaded to: SVG Repo, www.svgrepo.com, Generator: SVG Repo Mixer Tools -->
<svg fill="#000000" height="800px" width="800px" version="1.1" id="Layer_1" xmlns="http://www.w3.org/2000/svg" xmlns:xlink="http://www.w3.org/1999/xlink" 
	 viewBox="0 0 512 512" xml:space="preserve">
<g>
	<g>
		<g>
			<path d="M480.086,62.979H31.914C14.316,62.979,0,77.297,0,94.893c0,14.142,0,308.072,0,322.214
				c0,17.598,14.316,31.914,31.914,31.914h448.173c17.598,0,31.914-14.318,31.914-31.914c0-14.142,0-308.072,0-322.214
				C512,77.297,497.684,62.979,480.086,62.979z M485.955,417.109c0,3.237-2.634,5.869-5.869,5.869H31.914
				c-3.235,0-5.869-2.634-5.869-5.869V269.024h459.91V417.109z M485.955,242.978H26.045V94.893c0-3.237,2.634-5.869,5.869-5.869
				h448.172c3.235,0,5.869,2.634,5.869,5.869V242.978z"/>
			<path d="M116.93,113.305c-29.056,0-52.696,23.64-52.696,52.696c0,28.986,23.616,52.698,52.696,52.698
				c29.056,0,52.698-23.64,52.698-52.698C169.625,136.98,145.971,113.305,116.93,113.305z M124.144,140.369l-32.846,32.846
				C85.655,153.197,104.142,134.73,124.144,140.369z M109.713,191.634l32.848-32.848
				C148.208,178.805,129.716,197.274,109.713,191.634z"/>
			<path d="M256.001,113.305c-29.056,0-52.698,23.64-52.698,52.696c0,29.024,23.656,52.698,52.698,52.698
				c29.056,0,52.698-23.64,52.698-52.698C308.697,136.759,284.862,113.305,256.001,113.305z M263.215,140.369l-32.848,32.848
				C224.721,153.194,243.215,134.73,263.215,140.369z M248.785,191.634l32.848-32.848
				C287.277,178.805,268.789,197.274,248.785,191.634z"/>
			<path d="M395.07,113.305c-29.056,0-52.698,23.64-52.698,52.696c0,28.927,23.531,52.698,52.698,52.698
				c29.056,0,52.696-23.64,52.696-52.698C447.766,136.969,424.104,113.305,395.07,113.305z M402.287,140.369l-32.848,32.848
				C363.792,153.195,382.286,134.728,402.287,140.369z M387.856,191.634l32.846-32.846
				C426.345,178.806,407.858,197.274,387.856,191.634z"/>
			<path d="M116.93,398.697c29.056,0,52.698-23.64,52.698-52.696c0-29.024-23.656-52.698-52.698-52.698
				c-29.056,0-52.696,23.64-52.696,52.698C64.234,375.036,87.9,398.697,116.93,398.697z M109.713,371.633l32.848-32.848
				C148.204,358.798,129.723,377.276,109.713,371.633z M124.144,320.367l-32.846,32.846
				C85.655,333.197,104.142,314.728,124.144,320.367z"/>
			<path d="M256.001,398.697c29.056,0,52.698-23.64,52.698-52.696c0-29.089-23.727-52.698-52.698-52.698
				c-29.056,0-52.698,23.64-52.698,52.698C203.303,375.024,226.957,398.697,256.001,398.697z M248.785,371.633l32.848-32.848
				C287.279,358.808,268.785,377.272,248.785,371.633z M263.215,320.367l-32.848,32.848
				C224.724,333.202,243.206,314.726,263.215,320.367z"/>
			<path d="M395.07,398.697c29.056,0,52.696-23.64,52.696-52.696c0-29.033-23.664-52.698-52.696-52.698
				c-29.056,0-52.698,23.64-52.698,52.698C342.375,375.024,366.029,398.697,395.07,398.697z M387.856,371.633l32.846-32.846
				C426.342,358.799,407.865,377.274,387.856,371.633z M402.287,320.367l-32.848,32.848
				C363.796,333.202,382.279,314.726,402.287,320.367z"/>
		</g>
	</g>
</g>
</svg>