<?xml version="1.0" encoding="iso-8859-1"?>
<!-- Uploaded to: SVG Repo, www.svgrepo.com, Generator: SVG Repo Mixer Tools -->
<svg fill="#000000" height="800px" width="800px" version="1.1" id="Layer_1" xmlns="http://www.w3.org/2000/svg" xmlns:xlink="http://www.w3.org/1999/xlink" 
	 viewBox="0 0 512 512" xml:space="preserve">
<g>
	<g>
		<path d="M420.547,488.369h-165.73c-22.341,0-40.516-18.175-40.516-40.516v-51.346h15.547c6.525,0,11.815-5.289,11.815-11.815
			v-26.394c46.945-4.89,83.666-44.686,83.666-92.904c0-13.769,0-203.01,0-208.433c0-6.527-5.289-11.815-11.815-11.815h-55.307
			C252.752,19.388,229.844,0,202.486,0c-27.358,0-50.266,19.388-55.721,45.146H91.456c-6.525,0-11.815,5.289-11.815,11.815
			c0,5.438,0,194.694,0,208.433c0,48.218,36.722,88.014,83.666,92.904v26.394c0,6.527,5.29,11.815,11.815,11.815h15.547v51.346
			c0,35.371,28.776,64.146,64.146,64.146h165.729c6.525,0,11.815-5.289,11.815-11.815
			C432.36,493.658,427.073,488.369,420.547,488.369z M233.653,45.146h-62.335C182.204,16.523,222.774,16.538,233.653,45.146z
			 M103.271,170.904h60.066c6.525,0,11.815-5.289,11.815-11.815c0-6.527-5.29-11.815-11.815-11.815h-60.066v-23.798h86.821
			c6.525,0,11.815-5.289,11.815-11.815c0-6.527-5.29-11.815-11.815-11.815h-86.821V68.777c13.429,0,192.307,0,198.428,0v133.196
			H103.271V170.904z M173.054,335.177c-38.479,0-69.783-31.304-69.783-69.783v-39.791h198.428v39.791
			c0,36.475-28.557,69.783-71.85,69.783C208.297,335.177,195.206,335.177,173.054,335.177z M186.938,372.878v-14.07h31.095v14.07
			H186.938z"/>
	</g>
</g>
</svg>